<svg width="21" height="21" viewBox="0 0 21 21" fill="none" xmlns="http://www.w3.org/2000/svg">
<path d="M10.1113 1.76868C10.9954 1.76868 11.8432 2.11987 12.4683 2.74499C13.0935 3.37011 13.4446 4.21796 13.4446 5.10201H15.1405C15.5723 5.10195 15.9873 5.2695 16.298 5.56935C16.6088 5.86921 16.791 6.27796 16.8063 6.70951L17.163 16.7095C17.1709 16.9332 17.1337 17.1561 17.0537 17.3651C16.9736 17.5741 16.8522 17.7648 16.6968 17.9259C16.5414 18.0869 16.3552 18.215 16.1492 18.3026C15.9433 18.3901 15.7218 18.4353 15.498 18.4353H4.72464C4.50085 18.4353 4.27936 18.3901 4.07339 18.3026C3.86742 18.215 3.68118 18.0869 3.5258 17.9259C3.37041 17.7648 3.24906 17.5741 3.16897 17.3651C3.08888 17.1561 3.0517 16.9332 3.05964 16.7095L3.41631 6.70951C3.43164 6.27796 3.61387 5.86921 3.9246 5.56935C4.23534 5.2695 4.65032 5.10195 5.08214 5.10201H6.77798C6.77798 4.21796 7.12917 3.37011 7.75429 2.74499C8.37941 2.11987 9.22726 1.76868 10.1113 1.76868V1.76868ZM8.44464 6.76868H6.77798V7.60201C6.77821 7.81441 6.85954 8.0187 7.00535 8.17315C7.15116 8.3276 7.35044 8.42054 7.56247 8.43299C7.77451 8.44543 7.98329 8.37645 8.14617 8.24012C8.30905 8.1038 8.41372 7.91042 8.43881 7.69951L8.44464 7.60201V6.76868ZM13.4446 6.76868H11.778V7.60201C11.778 7.82302 11.8658 8.03499 12.0221 8.19127C12.1783 8.34755 12.3903 8.43534 12.6113 8.43534C12.8323 8.43534 13.0443 8.34755 13.2006 8.19127C13.3568 8.03499 13.4446 7.82302 13.4446 7.60201V6.76868ZM10.1113 3.43534C9.69083 3.43521 9.28584 3.59402 8.97752 3.87992C8.6692 4.16583 8.48035 4.55771 8.44881 4.97701L8.44464 5.10201H11.778C11.778 4.65998 11.6024 4.23606 11.2898 3.9235C10.9773 3.61094 10.5533 3.43534 10.1113 3.43534V3.43534Z" fill="#3E3E3E"/>
</svg>
