<svg width="17" height="18" viewBox="0 0 17 18" fill="none" xmlns="http://www.w3.org/2000/svg">
<path d="M14.4419 6.94883L8.84193 12.9165C8.77526 12.9874 8.70304 13.0374 8.62526 13.0667C8.54748 13.0965 8.46415 13.1113 8.37526 13.1113C8.28637 13.1113 8.20304 13.0965 8.12526 13.0667C8.04748 13.0374 7.97526 12.9874 7.90859 12.9165L2.29193 6.94883C2.13637 6.78355 2.05859 6.57695 2.05859 6.32904C2.05859 6.08112 2.14193 5.86862 2.30859 5.69154C2.47526 5.51445 2.6697 5.42591 2.89193 5.42591C3.11415 5.42591 3.30859 5.51445 3.47526 5.69154L8.37526 10.8978L13.2753 5.69154C13.4308 5.52626 13.6224 5.44362 13.8499 5.44362C14.0779 5.44362 14.2753 5.53216 14.4419 5.70924C14.6086 5.88633 14.6919 6.09292 14.6919 6.32904C14.6919 6.56515 14.6086 6.77174 14.4419 6.94883Z" fill="#3E3E3E"/>
</svg>
