<svg width="12" height="11" viewBox="0 0 12 11" fill="none" xmlns="http://www.w3.org/2000/svg">
<path d="M5.5413 1.44804C4.93345 0.837322 4.10794 0.492984 3.24628 0.490734C2.38462 0.488483 1.55733 0.828505 0.946298 1.43604C0.338759 2.04708 -0.0012626 2.87437 0.000987661 3.73603C0.00323792 4.59769 0.347576 5.42319 0.958298 6.03104L5.6653 10.739C5.75906 10.8328 5.88622 10.8854 6.0188 10.8854C6.15138 10.8854 6.27853 10.8328 6.3723 10.739L11.0553 6.05904C11.6625 5.44805 12.0024 4.62098 12.0001 3.75956C11.9979 2.89814 11.6537 2.07286 11.0433 1.46504C10.7421 1.16198 10.3841 0.921256 9.98977 0.756622C9.59547 0.591989 9.17258 0.506676 8.74529 0.505562C8.31799 0.504448 7.89467 0.587553 7.49951 0.750127C7.10435 0.912702 6.7451 1.15156 6.4423 1.45304L5.9953 1.90104L5.5413 1.44804Z" fill="black"/>
</svg>
