<svg width="12" height="11" viewBox="0 0 12 11" fill="none" xmlns="http://www.w3.org/2000/svg">
<path d="M5.5413 1.44804C4.93345 0.837322 4.10794 0.492984 3.24628 0.490734C2.38462 0.488483 1.55733 0.828505 0.946298 1.43604C0.338759 2.04708 -0.0012626 2.87437 0.000987661 3.73603C0.00323792 4.59769 0.347576 5.42319 0.958298 6.03104L5.6653 10.739C5.75906 10.8328 5.88622 10.8854 6.0188 10.8854C6.15138 10.8854 6.27853 10.8328 6.3723 10.739L11.0553 6.05904C11.6625 5.44805 12.0024 4.62098 12.0001 3.75956C11.9979 2.89814 11.6537 2.07286 11.0433 1.46504C10.7421 1.16198 10.3841 0.921256 9.98977 0.756622C9.59547 0.591989 9.17258 0.506676 8.74529 0.505562C8.31799 0.504448 7.89467 0.587553 7.49951 0.750127C7.10435 0.912702 6.7451 1.15156 6.4423 1.45304L5.9953 1.90104L5.5413 1.44804ZM10.3463 5.35304L6.0203 9.67805L1.6653 5.32404C1.24235 4.90376 1.00352 4.33278 1.00127 3.73653C0.999022 3.14027 1.23354 2.56751 1.6533 2.14404C2.07654 1.72371 2.64937 1.48864 3.24587 1.49052C3.84237 1.4924 4.41371 1.73106 4.8343 2.15404L5.6443 2.96404C5.69139 3.01115 5.74743 3.04837 5.80911 3.07352C5.87079 3.09867 5.93687 3.11124 6.00348 3.1105C6.07009 3.10975 6.13587 3.0957 6.19698 3.06918C6.25808 3.04266 6.31327 3.00419 6.3593 2.95604L7.1493 2.16004C7.35923 1.95153 7.60818 1.78644 7.88195 1.67419C8.15571 1.56193 8.44891 1.50473 8.74479 1.50585C9.04066 1.50696 9.33342 1.56637 9.60633 1.68068C9.87924 1.79499 10.1269 1.96196 10.3353 2.17204C10.7584 2.5925 10.9973 3.16377 10.9993 3.76027C11.0014 4.35677 10.7665 4.92967 10.3463 5.35304Z" fill="black"/>
</svg>
