<svg width="25" height="25" viewBox="0 0 25 25" fill="none" xmlns="http://www.w3.org/2000/svg">
<path d="M18.8398 3.94824H8.83984C8.1105 3.94824 7.41103 4.23797 6.8953 4.7537C6.37957 5.26942 6.08984 5.9689 6.08984 6.69824V6.94824H5.83984C5.1105 6.94824 4.41103 7.23797 3.8953 7.7537C3.37958 8.26942 3.08984 8.9689 3.08984 9.69824V17.6982C3.08984 18.4276 3.37958 19.1271 3.8953 19.6428C4.41103 20.1585 5.1105 20.4482 5.83984 20.4482H15.8398C16.5692 20.4482 17.2687 20.1585 17.7844 19.6428C18.3001 19.1271 18.5898 18.4276 18.5898 17.6982V17.4482H18.8398C19.5692 17.4482 20.2687 17.1585 20.7844 16.6428C21.3001 16.1271 21.5898 15.4276 21.5898 14.6982V6.69824C21.5898 5.9689 21.3001 5.26942 20.7844 4.7537C20.2687 4.23797 19.5692 3.94824 18.8398 3.94824ZM7.58984 6.69824C7.58984 6.36672 7.72154 6.04878 7.95596 5.81436C8.19038 5.57994 8.50832 5.44824 8.83984 5.44824H18.8398C19.1714 5.44824 19.4893 5.57994 19.7237 5.81436C19.9581 6.04878 20.0898 6.36672 20.0898 6.69824V12.8982L17.8198 10.9882C17.7459 10.924 17.66 10.875 17.567 10.8442C17.474 10.8134 17.3758 10.8014 17.2781 10.8089C17.1805 10.8163 17.0852 10.8431 16.998 10.8876C16.9107 10.9321 16.8332 10.9935 16.7698 11.0682L15.6998 12.3282L11.6998 8.44824C11.6359 8.37201 11.5565 8.31028 11.4668 8.26717C11.3771 8.22407 11.2793 8.20057 11.1798 8.19824C11.0768 8.20213 10.9757 8.22722 10.8827 8.27196C10.7898 8.31669 10.7071 8.38011 10.6398 8.45824L7.58984 12.0882V6.69824ZM8.83984 15.9482C8.50832 15.9482 8.19038 15.8165 7.95596 15.5821C7.72154 15.3477 7.58984 15.0298 7.58984 14.6982V14.3982L11.2598 10.0782L14.7198 13.4682L12.6198 15.9482H8.83984ZM17.0898 17.6982C17.0898 18.0298 16.9581 18.3477 16.7237 18.5821C16.4893 18.8165 16.1714 18.9482 15.8398 18.9482H5.83984C5.50832 18.9482 5.19038 18.8165 4.95596 18.5821C4.72154 18.3477 4.58984 18.0298 4.58984 17.6982V9.69824C4.58984 9.36672 4.72154 9.04878 4.95596 8.81436C5.19038 8.57994 5.50832 8.44824 5.83984 8.44824H6.08984V14.6982C6.08984 15.4276 6.37957 16.1271 6.8953 16.6428C7.41103 17.1585 8.1105 17.4482 8.83984 17.4482H17.0898V17.6982ZM18.8398 15.9482H14.5898L17.4298 12.6082L20.0598 14.8382C20.0301 15.1415 19.8889 15.423 19.6635 15.628C19.4381 15.8331 19.1446 15.9472 18.8398 15.9482Z" fill="#298FC2"/>
</svg>
