<svg width="18" height="18" viewBox="0 0 18 18" fill="none" xmlns="http://www.w3.org/2000/svg">
<path d="M11.3745 9C11.3745 9.5439 11.2132 10.0756 10.9111 10.5278C10.6089 10.9801 10.1794 11.3325 9.67689 11.5407C9.17439 11.7488 8.62146 11.8033 8.08801 11.6972C7.55457 11.5911 7.06456 11.3291 6.67997 10.9445C6.29537 10.5599 6.03346 10.0699 5.92735 9.5365C5.82124 9.00305 5.8757 8.45012 6.08384 7.94762C6.29198 7.44512 6.64446 7.01563 7.09669 6.71346C7.54893 6.41128 8.08061 6.25 8.62451 6.25C9.35316 6.25227 10.0513 6.54273 10.5666 7.05796C11.0818 7.57319 11.3722 8.27135 11.3745 9ZM17.2183 5.21875V12.7812C17.2183 14.0576 16.7112 15.2817 15.8087 16.1842C14.9062 17.0867 13.6821 17.5938 12.4058 17.5938H4.84326C3.56691 17.5938 2.34283 17.0867 1.44031 16.1842C0.537791 15.2817 0.0307617 14.0576 0.0307617 12.7812V5.21875C0.0307617 3.9424 0.537791 2.71832 1.44031 1.8158C2.34283 0.91328 3.56691 0.40625 4.84326 0.40625H12.4058C13.6821 0.40625 14.9062 0.91328 15.8087 1.8158C16.7112 2.71832 17.2183 3.9424 17.2183 5.21875ZM12.7495 9C12.7495 8.18415 12.5076 7.38663 12.0543 6.70827C11.6011 6.02992 10.9568 5.50121 10.2031 5.189C9.44934 4.87679 8.61994 4.7951 7.81976 4.95426C7.01959 5.11343 6.28459 5.50629 5.7077 6.08318C5.1308 6.66008 4.73794 7.39508 4.57877 8.19525C4.41961 8.99542 4.5013 9.82482 4.81351 10.5786C5.12572 11.3323 5.65443 11.9766 6.33278 12.4298C7.01114 12.8831 7.80866 13.125 8.62451 13.125C9.71853 13.125 10.7677 12.6904 11.5413 11.9168C12.3149 11.1432 12.7495 10.094 12.7495 9ZM14.1245 4.53125C14.1245 4.32729 14.064 4.12791 13.9507 3.95832C13.8374 3.78873 13.6763 3.65655 13.4879 3.5785C13.2995 3.50045 13.0921 3.48002 12.8921 3.51981C12.692 3.55961 12.5083 3.65782 12.3641 3.80205C12.2198 3.94627 12.1216 4.13002 12.0818 4.33006C12.042 4.53011 12.0625 4.73746 12.1405 4.92589C12.2186 5.11433 12.3507 5.27539 12.5203 5.3887C12.6899 5.50202 12.8893 5.5625 13.0933 5.5625C13.3668 5.5625 13.6291 5.45385 13.8225 5.26045C14.0159 5.06706 14.1245 4.80475 14.1245 4.53125Z" fill="black"/>
</svg>
