<svg width="19" height="18" viewBox="0 0 19 18" fill="none" xmlns="http://www.w3.org/2000/svg">
<path d="M17.184 0.000821525H2.16527C1.97169 -0.00824837 1.77822 0.020951 1.59593 0.0867482C1.41365 0.152546 1.24613 0.253649 1.10297 0.38427C0.959812 0.514891 0.843819 0.672465 0.761635 0.847971C0.67945 1.02348 0.632687 1.21347 0.624023 1.40707V16.4596C0.635364 16.8648 0.801385 17.2502 1.088 17.5368C1.37462 17.8235 1.76009 17.9895 2.16527 18.0008H17.184C17.5779 17.9833 17.9493 17.8121 18.2185 17.524C18.4877 17.2359 18.6332 16.8538 18.624 16.4596V1.40707C18.6272 1.21864 18.5919 1.03153 18.5203 0.85723C18.4486 0.682927 18.3421 0.5251 18.2073 0.393428C18.0724 0.261755 17.9121 0.159014 17.7362 0.0915022C17.5602 0.0239908 17.3723 -0.00686701 17.184 0.000821525ZM6.24902 15.0083H3.62777V6.98707H6.24902V15.0083ZM5.00027 5.77207C4.81736 5.77845 4.6351 5.74693 4.46495 5.67949C4.2948 5.61206 4.14043 5.51017 4.01154 5.38022C3.88265 5.25028 3.78202 5.09508 3.71598 4.92438C3.64994 4.75369 3.61991 4.57118 3.62777 4.38832C3.61969 4.20349 3.65032 4.01901 3.71772 3.84671C3.78511 3.67441 3.88778 3.5181 4.01913 3.38781C4.15048 3.25752 4.30761 3.15612 4.48045 3.09013C4.65329 3.02413 4.83801 2.99499 5.02277 3.00457C5.20569 2.9982 5.38795 3.02972 5.5581 3.09715C5.72825 3.16458 5.88262 3.26647 6.01151 3.39642C6.1404 3.52637 6.24102 3.68156 6.30707 3.85226C6.37311 4.02295 6.40314 4.20546 6.39527 4.38832C6.40336 4.57315 6.37272 4.75764 6.30533 4.92993C6.23793 5.10223 6.13527 5.25854 6.00392 5.38883C5.87257 5.51912 5.71544 5.62052 5.5426 5.68652C5.36976 5.75251 5.18503 5.78166 5.00027 5.77207ZM15.6315 15.0083H12.999V10.6208C12.999 9.57457 12.6278 8.85457 11.694 8.85457C11.4039 8.85709 11.1218 8.94926 10.8861 9.11844C10.6505 9.28762 10.4729 9.52553 10.3778 9.79957C10.3046 10.005 10.274 10.2232 10.2878 10.4408V15.0083H7.70027V6.98707H10.2878V8.11207C10.5178 7.68945 10.8602 7.33864 11.2771 7.09842C11.6941 6.85819 12.1693 6.7379 12.6503 6.75082C14.349 6.75082 15.6315 7.87582 15.6315 10.2721V15.0083Z" fill="black"/>
</svg>
