<svg width="20" height="20" viewBox="0 0 20 20" fill="none" xmlns="http://www.w3.org/2000/svg">
<path d="M9.99984 5.41663C10.5524 5.41663 11.0823 5.63612 11.473 6.02682C11.8637 6.41752 12.0832 6.94742 12.0832 7.49996C12.0832 7.77355 12.0293 8.04446 11.9246 8.29722C11.8199 8.54998 11.6664 8.77964 11.473 8.9731C11.2795 9.16655 11.0499 9.32001 10.7971 9.42471C10.5443 9.52941 10.2734 9.58329 9.99984 9.58329C9.4473 9.58329 8.9174 9.3638 8.5267 8.9731C8.136 8.5824 7.9165 8.05249 7.9165 7.49996C7.9165 6.94742 8.136 6.41752 8.5267 6.02682C8.9174 5.63612 9.4473 5.41663 9.99984 5.41663ZM9.99984 1.66663C11.5469 1.66663 13.0307 2.28121 14.1246 3.37517C15.2186 4.46913 15.8332 5.95286 15.8332 7.49996C15.8332 11.875 9.99984 18.3333 9.99984 18.3333C9.99984 18.3333 4.1665 11.875 4.1665 7.49996C4.1665 5.95286 4.78109 4.46913 5.87505 3.37517C6.96901 2.28121 8.45274 1.66663 9.99984 1.66663ZM9.99984 3.33329C8.89477 3.33329 7.83496 3.77228 7.05356 4.55368C6.27216 5.33508 5.83317 6.39489 5.83317 7.49996C5.83317 8.33329 5.83317 9.99996 9.99984 15.5916C14.1665 9.99996 14.1665 8.33329 14.1665 7.49996C14.1665 6.39489 13.7275 5.33508 12.9461 4.55368C12.1647 3.77228 11.1049 3.33329 9.99984 3.33329Z" fill="black"/>
</svg>
