<svg width="20" height="20" viewBox="0 0 20 20" fill="none" xmlns="http://www.w3.org/2000/svg">
<path d="M16.6665 3.33337H3.33317C2.4165 3.33337 1.67484 4.08337 1.67484 5.00004L1.6665 15C1.6665 15.9167 2.4165 16.6667 3.33317 16.6667H16.6665C17.5832 16.6667 18.3332 15.9167 18.3332 15V5.00004C18.3332 4.08337 17.5832 3.33337 16.6665 3.33337ZM15.8332 15H4.1665C3.70817 15 3.33317 14.625 3.33317 14.1667V6.66671L9.1165 10.2834C9.65817 10.625 10.3415 10.625 10.8832 10.2834L16.6665 6.66671V14.1667C16.6665 14.625 16.2915 15 15.8332 15ZM9.99984 9.16671L3.33317 5.00004H16.6665L9.99984 9.16671Z" fill="black"/>
</svg>
