<svg width="19" height="15" viewBox="0 0 19 15" fill="none" xmlns="http://www.w3.org/2000/svg">
<path fill-rule="evenodd" clip-rule="evenodd" d="M0.445312 1.80811C0.445312 1.25582 0.893028 0.808105 1.44531 0.808105H17.4453C17.9976 0.808105 18.4453 1.25582 18.4453 1.80811C18.4453 2.36039 17.9976 2.80811 17.4453 2.80811H1.44531C0.893028 2.80811 0.445312 2.36039 0.445312 1.80811ZM0.445312 7.80811C0.445312 7.25582 0.893028 6.80811 1.44531 6.80811H17.4453C17.9976 6.80811 18.4453 7.25582 18.4453 7.80811C18.4453 8.36039 17.9976 8.80811 17.4453 8.80811H1.44531C0.893028 8.80811 0.445312 8.36039 0.445312 7.80811ZM0.445312 13.8081C0.445312 13.2558 0.893028 12.8081 1.44531 12.8081H17.4453C17.9976 12.8081 18.4453 13.2558 18.4453 13.8081C18.4453 14.3604 17.9976 14.8081 17.4453 14.8081H1.44531C0.893028 14.8081 0.445312 14.3604 0.445312 13.8081Z" fill="black"/>
</svg>
