<svg width="24" height="24" viewBox="0 0 24 24" fill="none" xmlns="http://www.w3.org/2000/svg">
<path d="M11.8438 0.48877C9.59399 0.48877 7.39475 1.1559 5.52414 2.4058C3.65353 3.6557 2.19557 5.43224 1.33463 7.51075C0.473679 9.58925 0.248416 11.8764 0.687323 14.0829C1.12623 16.2895 2.20959 18.3163 3.80042 19.9071C5.39124 21.4979 7.41807 22.5813 9.6246 23.0202C11.8311 23.4591 14.1183 23.2338 16.1968 22.3729C18.2753 21.512 20.0518 20.054 21.3017 18.1834C22.5516 16.3128 23.2188 14.1135 23.2188 11.8638C23.213 8.84871 22.0127 5.95879 19.8807 3.82682C17.7487 1.69484 14.8588 0.494551 11.8438 0.48877ZM16.2188 12.7388H7.46875C7.23669 12.7388 7.01413 12.6466 6.85004 12.4825C6.68594 12.3184 6.59375 12.0958 6.59375 11.8638C6.59375 11.6317 6.68594 11.4091 6.85004 11.2451C7.01413 11.081 7.23669 10.9888 7.46875 10.9888H16.2188C16.4508 10.9888 16.6734 11.081 16.8375 11.2451C17.0016 11.4091 17.0938 11.6317 17.0938 11.8638C17.0938 12.0958 17.0016 12.3184 16.8375 12.4825C16.6734 12.6466 16.4508 12.7388 16.2188 12.7388Z" fill="#298FC2"/>
</svg>
