<svg width="18" height="18" viewBox="0 0 18 18" fill="none" xmlns="http://www.w3.org/2000/svg">
<path fill-rule="evenodd" clip-rule="evenodd" d="M4.62508 5.66666C4.62363 4.6008 5.01132 3.57108 5.71535 2.77085C6.41939 1.97061 7.39134 1.45491 8.44869 1.32058C9.50605 1.18625 10.5761 1.44253 11.4578 2.0413C12.3396 2.64007 12.9725 3.54013 13.2376 4.57249C13.2826 4.72881 13.3868 4.86141 13.5281 4.94211C13.6693 5.02282 13.8365 5.04527 13.994 5.00469C14.1516 4.96411 14.2871 4.8637 14.3718 4.7248C14.4565 4.5859 14.4837 4.41945 14.4476 4.26082C14.1062 2.93424 13.2924 1.77781 12.159 1.00854C11.0256 0.239258 9.65049 -0.0900034 8.29158 0.0825312C6.93268 0.255066 5.68344 0.917538 4.77824 1.94565C3.87305 2.97376 3.37413 4.29685 3.37508 5.66666V7.37916C2.44591 7.44832 1.84175 7.62332 1.39925 8.06582C0.666748 8.79749 0.666748 9.97666 0.666748 12.3333C0.666748 14.69 0.666748 15.8692 1.39925 16.6008C2.13091 17.3333 3.31008 17.3333 5.66675 17.3333H12.3334C14.6901 17.3333 15.8692 17.3333 16.6009 16.6008C17.3334 15.8692 17.3334 14.69 17.3334 12.3333C17.3334 9.97666 17.3334 8.79749 16.6009 8.06582C15.8692 7.33332 14.6901 7.33332 12.3334 7.33332H5.66675C5.29008 7.33332 4.94425 7.33332 4.62508 7.33666V5.66666ZM5.66675 13.1667C5.88776 13.1667 6.09972 13.0789 6.256 12.9226C6.41228 12.7663 6.50008 12.5543 6.50008 12.3333C6.50008 12.1123 6.41228 11.9003 6.256 11.7441C6.09972 11.5878 5.88776 11.5 5.66675 11.5C5.44573 11.5 5.23377 11.5878 5.07749 11.7441C4.92121 11.9003 4.83341 12.1123 4.83341 12.3333C4.83341 12.5543 4.92121 12.7663 5.07749 12.9226C5.23377 13.0789 5.44573 13.1667 5.66675 13.1667ZM9.00008 13.1667C9.22109 13.1667 9.43306 13.0789 9.58934 12.9226C9.74562 12.7663 9.83341 12.5543 9.83341 12.3333C9.83341 12.1123 9.74562 11.9003 9.58934 11.7441C9.43306 11.5878 9.22109 11.5 9.00008 11.5C8.77907 11.5 8.56711 11.5878 8.41083 11.7441C8.25455 11.9003 8.16675 12.1123 8.16675 12.3333C8.16675 12.5543 8.25455 12.7663 8.41083 12.9226C8.56711 13.0789 8.77907 13.1667 9.00008 13.1667ZM13.1667 12.3333C13.1667 12.5543 13.079 12.7663 12.9227 12.9226C12.7664 13.0789 12.5544 13.1667 12.3334 13.1667C12.1124 13.1667 11.9004 13.0789 11.7442 12.9226C11.5879 12.7663 11.5001 12.5543 11.5001 12.3333C11.5001 12.1123 11.5879 11.9003 11.7442 11.7441C11.9004 11.5878 12.1124 11.5 12.3334 11.5C12.5544 11.5 12.7664 11.5878 12.9227 11.7441C13.079 11.9003 13.1667 12.1123 13.1667 12.3333Z" fill="black"/>
</svg>
