<svg width="20" height="20" viewBox="0 0 20 20" fill="none" xmlns="http://www.w3.org/2000/svg">
<path d="M9.9987 9.99992C9.08203 9.99992 8.29731 9.67353 7.64453 9.02075C6.99175 8.36797 6.66536 7.58325 6.66536 6.66659C6.66536 5.74992 6.99175 4.9652 7.64453 4.31242C8.29731 3.65964 9.08203 3.33325 9.9987 3.33325C10.9154 3.33325 11.7001 3.65964 12.3529 4.31242C13.0056 4.9652 13.332 5.74992 13.332 6.66659C13.332 7.58325 13.0056 8.36797 12.3529 9.02075C11.7001 9.67353 10.9154 9.99992 9.9987 9.99992ZM3.33203 16.6666V14.3333C3.33203 13.861 3.4537 13.4269 3.69703 13.0308C3.94036 12.6346 4.26314 12.3327 4.66536 12.1249C5.52648 11.6944 6.40148 11.3713 7.29036 11.1558C8.17925 10.9402 9.08203 10.8327 9.9987 10.8333C10.9154 10.8333 11.8181 10.941 12.707 11.1566C13.5959 11.3721 14.4709 11.6949 15.332 12.1249C15.7348 12.3333 16.0579 12.6355 16.3012 13.0316C16.5445 13.4277 16.6659 13.8616 16.6654 14.3333V16.6666H3.33203Z" fill="black"/>
</svg>
