<svg width="20" height="20" viewBox="0 0 20 20" fill="none" xmlns="http://www.w3.org/2000/svg">
<path d="M7.70833 18.3334L7.375 15.6667C7.19444 15.5972 7.02417 15.5139 6.86417 15.4167C6.70417 15.3195 6.54806 15.2153 6.39583 15.1042L3.91667 16.1459L1.625 12.1875L3.77083 10.5625C3.75694 10.4653 3.75 10.3714 3.75 10.2809V9.71919C3.75 9.62863 3.75694 9.53474 3.77083 9.43752L1.625 7.81252L3.91667 3.85419L6.39583 4.89585C6.54861 4.78474 6.70833 4.68058 6.875 4.58335C7.04167 4.48613 7.20833 4.4028 7.375 4.33335L7.70833 1.66669H12.2917L12.625 4.33335C12.8056 4.4028 12.9758 4.48613 13.1358 4.58335C13.2958 4.68058 13.4519 4.78474 13.6042 4.89585L16.0833 3.85419L18.375 7.81252L16.2292 9.43752C16.2431 9.53474 16.25 9.62863 16.25 9.71919V10.2809C16.25 10.3714 16.2361 10.4653 16.2083 10.5625L18.3542 12.1875L16.0625 16.1459L13.6042 15.1042C13.4514 15.2153 13.2917 15.3195 13.125 15.4167C12.9583 15.5139 12.7917 15.5972 12.625 15.6667L12.2917 18.3334H7.70833ZM10.0417 12.9167C10.8472 12.9167 11.5347 12.632 12.1042 12.0625C12.6736 11.4931 12.9583 10.8056 12.9583 10C12.9583 9.19446 12.6736 8.50696 12.1042 7.93752C11.5347 7.36808 10.8472 7.08335 10.0417 7.08335C9.22222 7.08335 8.53111 7.36808 7.96833 7.93752C7.40556 8.50696 7.12444 9.19446 7.125 10C7.125 10.8056 7.40611 11.4931 7.96833 12.0625C8.53056 12.632 9.22167 12.9167 10.0417 12.9167Z" fill="black"/>
</svg>
